{"title":"Adventure Time [iTunes, 1080p HD] volumes 1 to 5","uid":9011368,"size":56745413187,"categoryP":"video","categoryS":"hd___tv_shows","magnet":"?xt=urn:btih:0c36d260e14dcf6bb13498023151369544e01dcd&amp;dn=Adventure+Time+%5BiTunes%2C+1080p+HD%5D+volumes+1+to+5&amp;tr=udp%3A%2F%2Ftracker.openbittorrent.com%3A80&amp;tr=udp%3A%2F%2Fopen.demonii.com%3A1337&amp;tr=udp%3A%2F%2Ftracker.coppersurfer.tk%3A6969&amp;tr=udp%3A%2F%2Fexodus.desync.com%3A6969","seeders":2,"leechers":2,"uploader":"milesrotaru","files":66,"time":1381113182,"description":"Adventure Time Volumes 1 to 5\n\nSource: iTunes, 1080p HD downloads\n\nThese are the original streams from iTunes, they have not been transcoded. The\nonly higher quality achievable would be from a Bluray rip. I just decrypted /\nremoved the DRM, scrubbed the metadata of confidential information, and for your\nconvenience added chapter markers to separate intros, credits, and individual\nepisodes within the files. Note that on iTunes, season 5 is split in half since\nit's twice as long as the other seasons. They call them volume 5 and volume 6.\nSo this torrent only has half of season 5. The rest isn't complete yet.\n\nAlso note that the full season uploads by &quot;DeLtA_Sn1p3r&quot; are NOT 1080p. They're\nshitty upscales. As far as I know, these are the only 1080p full seasons on TPB.\n\nAll files encoded identically. Here's a representative example:\n\nContainer\nFormat                         : MPEG-4\nCodec ID                       : M4V \nFile size                      : 846 MiB\nDuration                       : 22mn 47s\nOverall bit rate mode          : Variable\nOverall bit rate               : 5 190 Kbps\n\nVideo\nID                             : 1\nFormat                         : AVC\nFormat/Info                    : Advanced Video Codec\nFormat profile                 : &lt;a class=&quot;__cf_email__&quot; href=&quot;/cdn-cgi/l/email-protection&quot; data-cfemail=&quot;d79fbeb0bf979be3f9e7&quot;&gt;[email&amp;#160;protected]&lt;/a&gt;&lt;script cf-hash='f9e31' type=&quot;text/javascript&quot;&gt;\n/* &lt;![CDATA[ */!function(){try{var t=&quot;currentScript&quot;in document?document.currentScript:function(){for(var t=document.getElementsByTagName(&quot;script&quot;),e=t.length;e--;)if(t[e].getAttribute(&quot;cf-hash&quot;))return t[e]}();if(t&amp;&amp;t.previousSibling){var e,r,n,i,c=t.previousSibling,a=c.getAttribute(&quot;data-cfemail&quot;);if(a){for(e=&quot;&quot;,r=parseInt(a.substr(0,2),16),n=2;a.length-n;n+=2)i=parseInt(a.substr(n,2),16)^r,e+=String.fromCharCode(i);e=document.createTextNode(e),c.parentNode.replaceChild(e,c)}}}catch(u){}}();/* ]]&gt; */&lt;/script&gt;\nFormat settings, CABAC         : Yes\nFormat settings, ReFrames      : 4 frames\nCodec ID                       : avc1\nCodec ID/Info                  : Advanced Video Coding\nDuration                       : 22mn 47s\nBit rate                       : 5 017 Kbps\nWidth                          : 1 920 pixels\nHeight                         : 1 080 pixels\nDisplay aspect ratio           : 16:9\nFrame rate mode                : Constant\nFrame rate                     : 23.976 fps\nColor space                    : YUV\nChroma subsampling             : 4:2:0\nBit depth                      : 8 bits\nScan type                      : Progressive\nBits/(Pixel*Frame)             : 0.101\nStream size                    : 818 MiB (97%)\nLanguage                       : English\nColor primaries                : BT.709\nTransfer characteristics       : BT.709\nMatrix coefficients            : BT.709\n\nAudio\nID                             : 2\nFormat                         : AAC\nFormat/Info                    : Advanced Audio Codec\nFormat profile                 : LC\nCodec ID                       : 40\nDuration                       : 22mn 47s\nSource duration                : 22mn 47s\nBit rate mode                  : Variable\nBit rate                       : 156 Kbps\nMaximum bit rate               : 249 Kbps\nChannel count                  : 2 channels\nChannel positions              : Front: L R\nSampling rate                  : 48.0 KHz\nCompression mode               : Lossy\nDelay relative to video        : 42ms\nStream size                    : 25.4 MiB (3%)\nSource stream size             : 25.4 MiB (3%)\nLanguage                       : English\n\nSreenshots:\n &lt;a href=&quot;\nhttp://i.imgur.com/K4NnTwN.jpg&quot; rel=&quot;nofollow&quot; target=&quot;_NEW&quot;&gt;\nhttp://i.imgur.com/K4NnTwN.jpg&lt;/a&gt;\n &lt;a href=&quot;\nhttp://i.imgur.com/kxemb4c.jpg&quot; rel=&quot;nofollow&quot; target=&quot;_NEW&quot;&gt;\nhttp://i.imgur.com/kxemb4c.jpg&lt;/a&gt;\n &lt;a href=&quot;\nhttp://i.imgur.com/F0LkJ1J.jpg&quot; rel=&quot;nofollow&quot; target=&quot;_NEW&quot;&gt;\nhttp://i.imgur.com/F0LkJ1J.jpg&lt;/a&gt;\n","torrent":{"xt":"urn:btih:0c36d260e14dcf6bb13498023151369544e01dcd","amp;dn":"Adventure+Time+%5BiTunes%2C+1080p+HD%5D+volumes+1+to+5","amp;tr":["udp%3A%2F%2Ftracker.openbittorrent.com%3A80","udp%3A%2F%2Fopen.demonii.com%3A1337","udp%3A%2F%2Ftracker.coppersurfer.tk%3A6969","udp%3A%2F%2Fexodus.desync.com%3A6969"],"infoHash":"0c36d260e14dcf6bb13498023151369544e01dcd","infoHashBuffer":{"type":"Buffer","data":[12,54,210,96,225,77,207,107,177,52,152,2,49,81,54,149,68,224,29,205]},"announce":[],"urlList":[]}}